PathFileType	4	(X/Y/Z)	C:/Users/opensim2020/Desktop/walking_exp_matlab/subject01_walking09_straight_01.trc	
DataRate	CameraRate	NumFrames	NumMarkers	Units	OrigDataRate	OrigDataStartFrame	OrigNumFrames	
100.00	100.00	8	43	mm	100.00	1014	485	
Frame#	Time	LFHD			RFHD			LBHD			RBHD			C7			T10			CLAV			STRN			RBAK			LSHO			LUPA			LELB			LFRM			LWRA			LWRB			LFIN			RSHO			RUPA			RELB			RFRM			RWRA			RWRB			RFIN			LASI			RASI			LPSI			RPSI			LTHI			LKNE			LTIB			LANK			LHEE			LTOE			RTHI			RKNE			RTIB			RANK			RHEE			RTOE			*39			*40			*41			*42			
		X1	Y1	Z1	X2	Y2	Z2	X3	Y3	Z3	X4	Y4	Z4	X5	Y5	Z5	X6	Y6	Z6	X7	Y7	Z7	X8	Y8	Z8	X9	Y9	Z9	X10	Y10	Z10	X11	Y11	Z11	X12	Y12	Z12	X13	Y13	Z13	X14	Y14	Z14	X15	Y15	Z15	X16	Y16	Z16	X17	Y17	Z17	X18	Y18	Z18	X19	Y19	Z19	X20	Y20	Z20	X21	Y21	Z21	X22	Y22	Z22	X23	Y23	Z23	X24	Y24	Z24	X25	Y25	Z25	X26	Y26	Z26	X27	Y27	Z27	X28	Y28	Z28	X29	Y29	Z29	X30	Y30	Z30	X31	Y31	Z31	X32	Y32	Z32	X33	Y33	Z33	X34	Y34	Z34	X35	Y35	Z35	X36	Y36	Z36	X37	Y37	Z37	X38	Y38	Z38	X39	Y39	Z39	X40	Y40	Z40	X41	Y41	Z41	X42	Y42	Z42	X43	Y43	Z43	

243	2.420	-1129.18542	-75.19790	1681.45605	-1016.26752	-65.66796	1692.30676	-1122.49780	-173.76544	1605.18616	-1002.29803	-166.42516	1614.25720	-1075.43677	-173.73506	1436.36218	-1060.07922	-205.96609	1143.07214	-1072.08032	-28.49582	1370.88818	-1074.11621	17.32781	1215.75781	-992.33264	-225.79391	1243.25696	-1233.68127	-88.93347	1396.69226	-1315.80103	-108.17304	1210.56616	-1315.29858	-108.28504	1059.16052	-1335.59448	-54.65198	957.94952	-1319.10144	40.05096	857.14447	-1336.22363	-14.88681	841.91986	-1348.65625	40.46618	779.35010	-921.37708	-92.43408	1400.60278	-817.43066	-144.19942	1200.85022	-815.91364	-138.98869	1074.67224	-788.47156	-102.57285	958.82703	-813.44592	-14.68358	849.06891	-773.07867	-56.25809	846.15442	-775.17902	-12.38633	773.24426	-1161.17468	-31.07610	931.57043	-944.24902	-34.37507	941.43359	-1109.72876	-219.24658	946.59924	-963.60632	-218.32486	952.77551	-1204.26501	-51.92792	597.81128	-1182.28870	-54.28956	464.90216	-1186.66443	-110.71186	283.04779	-1133.25305	-151.42459	69.76817	-1081.28064	-198.97453	41.79651	-1139.08167	-5.09786	34.49584	-867.98615	-22.40888	616.17572	-881.95972	6.26215	460.07797	-883.61780	-124.19625	341.29947	-933.12152	-248.27747	177.58344	-991.77893	-302.39200	167.15848	-916.94336	-162.61917	64.35403	-1039.27527	-86.82319	1720.29346	-3101.93408	1973.20313	1023.52972	-3140.69678	2012.51819	1022.08087			 
244	2.430	-1129.64465	-69.26295	1681.63928	-1016.50568	-59.69316	1692.31030	-1123.03271	-167.88063	1605.49133	-1002.78729	-160.56361	1614.44202	-1076.12305	-168.24857	1436.61047	-1061.09314	-201.10434	1143.33191	-1072.73303	-23.17818	1370.86230	-1074.81311	22.38136	1215.69226	-993.17474	-220.74904	1243.57898	-1234.28381	-83.39025	1396.84863	-1316.62488	-101.91721	1210.83386	-1316.31799	-100.90244	1059.35144	-1336.51392	-46.10189	958.63196	-1320.04077	49.84941	858.99463	-1337.14832	-4.97115	843.20886	-1349.66003	51.18698	781.31317	-922.06512	-87.02840	1400.78967	-818.13074	-139.33009	1201.05029	-816.91064	-134.73380	1074.81006	-789.40234	-98.78422	958.81445	-814.18719	-11.26768	848.73096	-773.89221	-52.91077	845.93060	-776.03094	-9.30066	772.91962	-1161.89075	-26.49664	931.41357	-945.02979	-29.55759	941.87195	-1110.10913	-214.58873	946.62415	-963.94122	-213.32014	952.83856	-1204.51245	-49.14786	597.42273	-1182.64221	-52.48118	464.46585	-1186.64221	-109.59715	282.92490	-1133.15796	-151.27364	69.81569	-1081.09192	-198.66643	41.73302	-1139.06653	-5.03952	34.44992	-868.27728	-14.29090	617.55402	-882.48993	15.86870	461.54602	-884.04254	-111.40614	339.06787	-933.87689	-231.08337	172.20953	-992.43781	-284.99011	159.87178	-916.85718	-141.53955	62.67760	-1039.74475	-80.73254	1720.30640	-3101.91846	1973.11475	1023.23627	-3140.62964	2012.59070	1022.05450			 
245	2.440	-1129.95935	-63.26517	1681.59192	-1016.94910	-53.85529	1692.14258	-1123.44812	-162.08472	1605.71313	-1003.31006	-154.86601	1614.55981	-1076.86743	-162.89847	1436.71985	-1061.98828	-196.14609	1143.55005	-1073.36377	-17.86766	1370.83789	-1075.45972	27.44789	1215.55347	-993.93475	-215.72394	1243.85632	-1234.79053	-77.86993	1396.87097	-1317.40332	-95.68046	1211.05908	-1317.24597	-93.60614	1059.48145	-1337.40662	-37.50117	959.55664	-1321.28320	59.55936	861.05981	-1337.96057	4.86839	844.45734	-1350.65759	61.78342	783.36365	-922.81732	-81.76215	1400.66003	-818.79938	-134.42781	1201.17627	-817.79901	-130.46941	1074.91125	-790.22809	-94.96417	958.77911	-814.86365	-7.78172	848.32025	-774.68494	-50.03728	845.60022	-776.89844	-6.25669	772.42786	-1162.49695	-21.83933	931.22266	-946.08594	-24.98220	942.22449	-1110.45459	-209.96739	946.57227	-964.19781	-208.36893	952.95013	-1204.77234	-46.52913	597.08075	-1182.86194	-50.78984	463.97272	-1186.62427	-108.58406	282.80701	-1133.10632	-151.12138	69.85390	-1081.02454	-198.64279	41.91286	-1139.20520	-5.04090	34.48372	-868.65796	-6.86415	618.88538	-883.11823	25.25854	462.95361	-884.36194	-98.54349	336.59781	-934.15082	-213.58914	166.66791	-993.05444	-267.34921	152.45370	-916.78680	-119.80292	60.94599	-1040.11609	-74.76263	1720.31653	-3102.01245	1973.13257	1023.96796	-3140.64307	2012.60522	1022.18262			 
246	2.450	-1130.23865	-57.33239	1681.59973	-1017.35742	-47.97408	1691.94702	-1123.85229	-156.31430	1605.96643	-1003.71216	-149.08784	1614.61780	-1077.51965	-157.61436	1436.96143	-1062.77917	-191.19801	1143.72217	-1073.92310	-12.51788	1370.73206	-1075.99573	32.56216	1215.38306	-994.76477	-210.70284	1244.03345	-1235.38257	-72.41035	1397.08142	-1318.10791	-89.42555	1211.25793	-1318.08313	-86.32396	1059.68567	-1338.30200	-29.18771	960.24890	-1322.06812	69.16689	862.99817	-1338.60303	14.65962	845.72412	-1351.47815	72.26784	785.32727	-923.35565	-76.44639	1400.73535	-819.28528	-129.81174	1201.21350	-818.57318	-126.14123	1074.98254	-790.95947	-91.06946	958.68018	-815.51294	-4.36614	847.95380	-775.37689	-46.16566	845.43451	-777.51257	-3.19321	771.96375	-1163.01172	-16.90834	931.07941	-946.71863	-20.16333	942.53339	-1110.65796	-205.34366	946.49670	-964.44275	-203.58234	953.00739	-1205.01013	-43.97936	596.77167	-1183.29053	-49.02605	463.87326	-1186.55481	-107.60931	282.65234	-1133.02258	-150.97375	69.96623	-1080.89502	-198.56590	42.06322	-1139.16113	-5.04454	34.42657	-868.80609	0.73658	619.85083	-883.60809	34.21007	464.27930	-884.55377	-85.56760	334.11115	-934.39362	-195.57759	160.88556	-993.11334	-249.15570	144.34200	-916.72174	-97.68729	59.04872	-1040.35461	-68.73406	1720.28979	-3101.89331	1973.06689	1023.39642	-3140.68750	2012.50635	1022.10846			 
247	2.460	-1130.52234	-51.37183	1681.59094	-1017.55426	-41.95509	1691.86584	-1124.33606	-150.51677	1606.19824	-1004.08734	-143.37898	1614.73059	-1078.06165	-152.13950	1436.93262	-1063.43274	-186.30991	1143.89221	-1074.35498	-7.20546	1370.57751	-1076.47363	37.60584	1215.15674	-995.50787	-205.66968	1244.17236	-1235.81555	-66.88505	1397.10022	-1318.72925	-83.14162	1211.42285	-1318.88025	-79.14585	1059.81616	-1338.98267	-20.92249	960.83832	-1322.79297	78.68366	864.92657	-1339.20801	24.37331	846.98499	-1352.20068	82.72412	787.36725	-923.96179	-71.24107	1400.49963	-819.94995	-124.63320	1201.28577	-819.26672	-121.78333	1075.02466	-791.68311	-87.23629	958.54041	-815.97858	-0.80940	847.53015	-775.93750	-43.10121	845.06830	-778.11139	-0.03427	771.51324	-1163.40540	-13.38519	930.65283	-947.25885	-15.36765	942.81226	-1110.85620	-200.75243	946.40710	-964.60254	-198.93581	952.95001	-1205.21411	-41.42927	596.45135	-1183.47461	-47.38499	463.44620	-1186.54919	-106.67355	282.52985	-1132.94324	-150.87141	69.99711	-1080.78906	-198.64600	42.24052	-1139.15698	-5.06288	34.48204	-868.92303	7.77135	620.91846	-884.20178	43.15947	465.49313	-884.69519	-72.60912	331.49292	-934.44232	-177.30162	154.69217	-992.85144	-229.87608	136.06531	-916.68396	-75.04272	57.12302	-1040.55176	-62.68192	1720.25012	-3101.89429	1973.04688	1023.40967	-3140.72559	2012.58960	1022.06635			 
248	2.470	-1130.73682	-45.43811	1681.49133	-1017.87408	-36.04174	1691.69092	-1124.62585	-144.78964	1606.37415	-1004.48944	-137.65714	1614.78638	-1078.54602	-146.79346	1436.98474	-1064.02563	-181.34659	1143.97839	-1074.75623	-1.86533	1370.37207	-1076.89771	42.67131	1214.90906	-996.19513	-200.60437	1244.24146	-1236.25732	-61.38788	1397.12537	-1319.28174	-76.87109	1211.54163	-1319.59106	-72.01189	1059.86414	-1339.69312	-12.65455	961.54095	-1323.41138	88.14719	866.85315	-1339.77588	34.02707	848.21545	-1352.79932	93.05826	789.31165	-924.39380	-66.08062	1400.40686	-820.42133	-119.75854	1201.27832	-819.90570	-117.35772	1074.99829	-792.18793	-83.32954	958.44775	-816.40155	2.62887	847.05737	-776.50275	-39.26085	844.88312	-778.48779	3.03270	771.03015	-1163.82080	-8.86768	930.36694	-947.72241	-10.56334	943.10590	-1110.93823	-196.20180	946.25885	-964.72308	-193.96768	952.78107	-1205.34216	-39.00017	596.09344	-1183.60059	-45.76227	463.09573	-1186.47217	-105.72717	282.40063	-1132.87634	-150.75919	70.05776	-1080.65417	-198.61504	42.34225	-1139.20422	-5.06413	34.45148	-869.03107	14.46652	621.80457	-884.86639	51.50821	466.39117	-884.62854	-59.88469	328.72717	-934.25183	-158.71858	148.54512	-992.60339	-210.99095	127.95563	-916.46051	-52.65483	55.63228	-1040.81348	-56.68797	1720.11169	-3101.80591	1973.21326	1023.50378	-3140.69458	2012.55737	1022.00220			 
249	2.480	-1130.94666	-39.46223	1681.42810	-1017.96234	-30.07398	1691.54260	-1125.02283	-139.02267	1606.52283	-1004.75897	-131.88274	1614.87109	-1078.89197	-141.44327	1437.06531	-1064.47339	-176.31578	1144.00745	-1075.05176	3.46632	1370.12073	-1077.31750	47.71170	1214.64294	-996.78687	-195.52998	1244.21973	-1236.39795	-55.83509	1396.99292	-1319.78601	-70.57994	1211.67908	-1320.19214	-65.03371	1059.85925	-1340.27869	-4.45922	962.33850	-1324.00671	97.57664	868.79742	-1340.18628	43.64026	849.46796	-1353.10510	103.22814	791.17566	-924.64471	-60.81805	1400.38733	-820.84802	-114.94489	1201.18066	-820.33337	-112.88033	1074.92346	-792.65363	-79.42230	958.26819	-816.77594	6.17551	846.52954	-776.76813	-36.15281	844.44714	-778.88739	6.24146	770.45099	-1164.49475	-4.20469	929.85669	-947.83734	-5.45458	943.37006	-1111.06201	-191.61459	946.08716	-964.70636	-189.40274	953.02417	-1205.32678	-36.48159	595.75153	-1183.76514	-43.90512	462.66754	-1186.37842	-104.60149	282.26328	-1132.74463	-150.62502	70.13766	-1080.41248	-198.60982	42.36927	-1139.13928	-5.00830	34.43932	-869.06073	20.77514	622.57257	-885.02075	59.36970	467.31470	-884.39465	-46.94544	326.08038	-933.59595	-139.44936	142.75592	-992.10181	-192.29398	119.56804	-916.22394	-29.87597	54.10858	-1041.07605	-50.65257	1719.99158	-3101.99365	1973.13086	1023.37726	-3140.68579	2012.60461	1022.13239			 
250	2.490	-1131.24426	-33.52668	1681.32385	-1018.13623	-24.12795	1691.31055	-1125.17798	-133.22652	1606.66272	-1004.97388	-126.19653	1614.93225	-1079.28674	-136.14168	1437.08337	-1064.77148	-171.35472	1144.00891	-1075.25024	8.81500	1369.89490	-1077.59717	52.86823	1214.35999	-997.23602	-190.42311	1244.19568	-1236.78894	-50.38567	1396.98218	-1320.18494	-64.33324	1211.72192	-1320.71387	-58.06328	1059.89807	-1340.76343	3.58175	962.82721	-1324.50391	106.88567	870.74481	-1340.52942	53.16470	850.75397	-1353.45886	113.57346	793.16174	-924.95508	-55.58780	1400.01709	-821.29224	-110.24912	1201.05322	-820.75995	-108.41885	1074.87805	-793.07263	-75.42297	958.05896	-817.02612	9.72470	846.01666	-777.04053	-32.73469	844.03137	-779.08893	9.45511	770.00684	-1164.87415	0.25784	929.52478	-948.21918	-0.60026	943.54572	-1111.06702	-187.06569	945.95612	-964.95264	-184.55612	952.84222	-1205.34680	-33.81535	595.34784	-1183.79553	-42.10857	462.23920	-1186.30200	-103.44144	282.16669	-1132.63867	-150.48094	70.26286	-1080.25415	-198.91396	42.78001	-1139.23840	-5.09359	34.42294	-869.14020	26.87567	623.15723	-885.39581	67.19572	468.37604	-884.07678	-34.57388	323.39514	-933.30164	-120.43777	136.33632	-991.28375	-171.73473	111.08529	-915.76770	-6.97933	52.97569	-1041.20178	-44.64972	1719.89746	-3101.98218	1973.13306	1023.48022	-3140.72095	2012.50403	1022.06110			 
